<?xml version="1.0" encoding="utf-8"?>
<!-- Generator: Adobe Illustrator 19.2.0, SVG Export Plug-In . SVG Version: 6.00 Build 0)  -->
<svg version="1.1" xmlns="http://www.w3.org/2000/svg" xmlns:xlink="http://www.w3.org/1999/xlink" x="0px" y="0px"
	 viewBox="0 0 576 576" style="enable-background:new 0 0 576 576;" xml:space="preserve">
<style type="text/css">
	.st0{display:none;}
	.st1{display:inline;}
	.st2{fill:#FFFFFF;}
	.st3{fill:#191919;}
	.st4{fill:#FFFFFF;}
</style>
<g id="Layer_1" class="st0">
	<g class="st1">
		<path class="st2" d="M287,4C129.1,4,1,132.1,1,290s128.1,286,286,286c157.9,0,286-128.1,286-286S444.9,4,287,4"/>
		<polygon class="st3" points="402.1,299.6 411.8,289.9 387.6,265.8 217.3,95.5 218,164.9 343.1,289.9 217.5,415.5 217.4,484.2
			377.4,324.3 377.4,324.3 		"/>
	</g>
</g>
<g id="Layer_2">
	<path class="st4" d="M433.8,406.1c-18.6,0-35.7,6.2-49.4,16.7L202.6,304.2c1.5-6.1,2.3-12.6,2.3-19.1c0-6.5-0.8-12.9-2.3-18.9
		l181.6-117.9c13.7,10.5,30.9,16.8,49.6,16.8c45,0,81.5-36.5,81.5-81.4c0-45-36.5-81.5-81.5-81.5s-81.5,36.5-81.5,81.5
		c0,6.5,0.8,12.8,2.3,18.9L173,220.4c-13.7-10.5-30.9-16.9-49.5-16.9c-45,0-81.5,36.5-81.5,81.5c0,45,36.5,81.5,81.5,81.5
		c18.6,0,35.7-6.2,49.4-16.7l181.8,118.6c-1.5,6.1-2.3,12.6-2.3,19.1c0,44.9,36.5,81.5,81.5,81.5s81.5-36.5,81.5-81.5
		C515.3,442.5,478.8,406.1,433.8,406.1"/>
</g>
</svg>
