<?xml version="1.0" encoding="utf-8"?>
<!-- Generator: Adobe Illustrator 19.1.0, SVG Export Plug-In . SVG Version: 6.00 Build 0)  -->
<svg version="1.1" id="Capa_1" xmlns="http://www.w3.org/2000/svg" xmlns:xlink="http://www.w3.org/1999/xlink" x="0px" y="0px"
	 viewBox="0 0 50 50" style="enable-background:new 0 0 50 50;" xml:space="preserve">
<style type="text/css">
	.st0{fill:#1187C9;}
	.st1{fill:#FFFFFF;}
</style>
<rect x="8.3" y="8.3" class="st0" width="34" height="34"/>
<path class="st1" d="M19.4,34.2h-4.1v-13h4.1V34.2z M17.3,19.5L17.3,19.5c-1.5,0-2.5-1-2.5-2.3c0-1.3,1-2.3,2.5-2.3
	c1.5,0,2.4,1,2.5,2.3C19.8,18.5,18.8,19.5,17.3,19.5z M35.7,34.2h-4.6v-6.7c0-1.8-0.7-3-2.3-3c-1.2,0-1.9,0.8-2.2,1.6
	c-0.1,0.3-0.1,0.7-0.1,1.1v7h-4.6c0,0,0.1-11.9,0-13h4.6v2c0.3-0.9,1.7-2.2,4.1-2.2c2.9,0,5.2,1.9,5.2,5.9V34.2z"/>
</svg>
