<?xml version="1.0" encoding="utf-8"?>
<!-- Generator: Adobe Illustrator 19.1.0, SVG Export Plug-In . SVG Version: 6.00 Build 0)  -->
<svg version="1.1" id="Capa_1" xmlns="http://www.w3.org/2000/svg" xmlns:xlink="http://www.w3.org/1999/xlink" x="0px" y="0px"
	 viewBox="0 0 50 50" style="enable-background:new 0 0 50 50;" xml:space="preserve">
<style type="text/css">
	.st0{fill:#EF4845;}
	.st1{fill:#FFFFFF;}
</style>
<rect x="8.2" y="8" class="st0" width="34" height="34"/>
<path class="st1" d="M30.2,16.9v4.6c-0.1,0.1-0.2,0.2-0.4,0.3c-0.1,0.1-0.3,0.1-0.4,0.1c-0.1,0-0.2,0-0.2-0.1
	c-0.1-0.1-0.1-0.2-0.1-0.3v-4.6h-1.2v5c0,0.4,0.1,0.6,0.2,0.8c0.1,0.2,0.4,0.3,0.6,0.3c0.2,0,0.5-0.1,0.7-0.2
	c0.2-0.1,0.5-0.3,0.7-0.6v0.7h1.2v-6H30.2z M26.4,17.2c-0.3-0.3-0.7-0.4-1.3-0.4c-0.6,0-1,0.1-1.3,0.4c-0.3,0.3-0.5,0.6-0.5,1.1v3.1
	c0,0.5,0.2,0.9,0.5,1.2c0.3,0.3,0.8,0.5,1.3,0.5c0.6,0,1-0.1,1.3-0.4c0.3-0.3,0.5-0.7,0.5-1.2v-3.1C26.9,17.9,26.7,17.5,26.4,17.2z
	 M25.6,21.5c0,0.2,0,0.3-0.1,0.4C25.4,22,25.3,22,25.1,22c-0.2,0-0.3,0-0.4-0.1c-0.1-0.1-0.1-0.2-0.1-0.4v-3.3c0-0.1,0-0.2,0.1-0.3
	c0.1-0.1,0.2-0.1,0.4-0.1c0.2,0,0.3,0,0.4,0.1c0.1,0.1,0.1,0.2,0.1,0.3V21.5z M21.8,14.8L21,18h-0.1L20,14.8h-1.4l1.7,4.9v3.2h1.4
	v-3.4l1.6-4.8H21.8z M31.4,29.1c0.1,0.1,0.1,0.3,0.1,0.5v0.6h-1v-0.6c0-0.2,0-0.4,0.1-0.5c0.1-0.1,0.2-0.2,0.4-0.2
	C31.2,29,31.4,29,31.4,29.1z M27.6,29.1C27.6,29,27.4,29,27.3,29c-0.1,0-0.2,0-0.2,0c-0.1,0-0.2,0.1-0.2,0.2v3.4
	c0.1,0.1,0.2,0.2,0.3,0.2c0.1,0,0.2,0.1,0.3,0.1c0.1,0,0.2,0,0.3-0.1c0.1-0.1,0.1-0.2,0.1-0.4v-2.8C27.8,29.3,27.7,29.2,27.6,29.1z
	 M27.6,29.1C27.6,29,27.4,29,27.3,29c-0.1,0-0.2,0-0.2,0c-0.1,0-0.2,0.1-0.2,0.2v3.4c0.1,0.1,0.2,0.2,0.3,0.2c0.1,0,0.2,0.1,0.3,0.1
	c0.1,0,0.2,0,0.3-0.1c0.1-0.1,0.1-0.2,0.1-0.4v-2.8C27.8,29.3,27.7,29.2,27.6,29.1z M33.8,24.9H16.7c-1.9,0-3.4,1.5-3.4,3.4v3.5
	c0,1.9,1.5,3.4,3.4,3.4h17.1c1.9,0,3.4-1.5,3.4-3.4v-3.5C37.2,26.4,35.7,24.9,33.8,24.9z M21.3,27.3H20v6.3h-1.2v-6.3h-1.3v-1.1h3.8
	V27.3z M24.9,33.6h-1.1V33c-0.2,0.2-0.4,0.4-0.6,0.5c-0.2,0.1-0.4,0.2-0.6,0.2c-0.3,0-0.4-0.1-0.6-0.3c-0.1-0.2-0.2-0.4-0.2-0.7
	v-4.6h1.1v4.2c0,0.1,0,0.2,0.1,0.3c0,0.1,0.1,0.1,0.2,0.1c0.1,0,0.2,0,0.3-0.1c0.1-0.1,0.2-0.2,0.3-0.3v-4.2h1.1V33.6z M28.9,32.5
	c0,0.4-0.1,0.7-0.3,0.9c-0.2,0.2-0.4,0.3-0.7,0.3c-0.2,0-0.4,0-0.6-0.1c-0.2-0.1-0.3-0.2-0.5-0.4v0.4h-1.1v-7.4h1.1v2.4
	c0.1-0.2,0.3-0.3,0.5-0.4c0.2-0.1,0.3-0.1,0.5-0.1c0.3,0,0.6,0.1,0.8,0.3c0.2,0.2,0.3,0.6,0.3,1V32.5z M32.7,31h-2.1v1
	c0,0.3,0,0.5,0.1,0.6c0.1,0.1,0.2,0.2,0.4,0.2c0.2,0,0.3,0,0.4-0.1c0.1-0.1,0.1-0.3,0.1-0.6v-0.3h1.1v0.3c0,0.6-0.1,1-0.4,1.3
	c-0.3,0.3-0.7,0.4-1.2,0.4c-0.5,0-0.9-0.1-1.2-0.4c-0.3-0.3-0.4-0.7-0.4-1.2v-2.5c0-0.5,0.2-0.9,0.5-1.2c0.3-0.3,0.7-0.4,1.2-0.4
	c0.5,0,0.9,0.1,1.1,0.4c0.3,0.3,0.4,0.7,0.4,1.2V31z M27.3,29c-0.1,0-0.2,0-0.2,0c-0.1,0-0.2,0.1-0.2,0.2v3.4
	c0.1,0.1,0.2,0.2,0.3,0.2c0.1,0,0.2,0.1,0.3,0.1c0.1,0,0.2,0,0.3-0.1c0.1-0.1,0.1-0.2,0.1-0.4v-2.8c0-0.2,0-0.3-0.1-0.4
	C27.6,29,27.4,29,27.3,29z M27.6,29.1C27.6,29,27.4,29,27.3,29c-0.1,0-0.2,0-0.2,0c-0.1,0-0.2,0.1-0.2,0.2v3.4
	c0.1,0.1,0.2,0.2,0.3,0.2c0.1,0,0.2,0.1,0.3,0.1c0.1,0,0.2,0,0.3-0.1c0.1-0.1,0.1-0.2,0.1-0.4v-2.8C27.8,29.3,27.7,29.2,27.6,29.1z
	 M27.6,29.1C27.6,29,27.4,29,27.3,29c-0.1,0-0.2,0-0.2,0c-0.1,0-0.2,0.1-0.2,0.2v3.4c0.1,0.1,0.2,0.2,0.3,0.2c0.1,0,0.2,0.1,0.3,0.1
	c0.1,0,0.2,0,0.3-0.1c0.1-0.1,0.1-0.2,0.1-0.4v-2.8C27.8,29.3,27.7,29.2,27.6,29.1z"/>
</svg>
