<?xml version="1.0" encoding="UTF-8" standalone="no"?>
<svg width="121px" height="50px" viewBox="0 0 121 50" version="1.1" xmlns="http://www.w3.org/2000/svg" xmlns:xlink="http://www.w3.org/1999/xlink">
    <!-- Generator: Sketch 46.2 (44496) - http://www.bohemiancoding.com/sketch -->
    <title>Lloyds_of_London_logo_black</title>
    <desc>Created with Sketch.</desc>
    <defs></defs>
    <g id="Page-1" stroke="none" stroke-width="1" fill="none" fill-rule="evenodd">
        <g id="Lloyds_of_London_logo_black" fill-rule="nonzero">
            <polygon id="path53635" fill="#000000" points="120.5 49.3 0 49.3 0 0.9 120.5 0.9"></polygon>
            <g id="g53637" transform="translate(14.558430, 15.491316)" fill="#FFFFFF">
                <g id="Group">
                    <g id="g53639">
                        <g id="g53645" transform="translate(77.259900, 0.555900)">
                            <path d="M2.7,0.6 C2.8,2 1.7,4 0.9,4.5 L0.4,4.1 C1.2,3.3 1,0.9 0.4,0.2 L0.4,0.1 C0.9,0.1 1.8,0.2 2.2,0.4 C2.5,0.5 2.6,0.6 2.7,0.6" id="path53647"></path>
                        </g>
                        <path d="M89.8,13.4 C89.8,16 87.8,18 84.4,18 C83,18 81.3,17.8 80.5,17.4 C80.5,17.4 80.4,17.3 80.4,16.8 C80.4,15.7 80.5,13.9 80.5,13.6 L81,13.6 C81.1,14 81.1,14.5 81.4,15 C81.9,16.5 83.2,17.1 84.6,17.1 C86.4,17.1 87.5,16.2 87.5,14.5 C87.5,13.3 86.6,12.5 85.1,11.4 L84.1,10.6 C82.1,9.1 80.7,7.6 80.7,5.5 C80.7,3.1 82.6,1.3 85.7,1.3 C86.9,1.3 88.3,1.6 88.8,1.7 C89.1,1.7 89.1,1.8 89.1,1.9 C89.1,2.2 89,3.4 89,5 L88.5,5 C88,3.3 87.6,2.2 85.5,2.2 C83.7,2.2 82.7,3.3 82.7,4.4 C82.7,5.4 83.6,6.5 85.2,7.7 L86.2,8.5 C88.8,10.2 89.8,11.4 89.8,13.4" id="path53651"></path>
                        <path d="M53.5,10.3 C53.2,11.1 53.1,11.7 53.1,12.4 L53.1,14.2 C53.1,14.6 53.1,15.3 53.1,16.2 C53.1,16.8 53.4,17.3 54,17.3 C54.2,17.3 55,17.4 55.2,17.4 L55.2,17.9 L48.2,17.9 L48.2,17.4 C48.4,17.4 49.3,17.4 49.6,17.3 C49.8,17.3 50.3,17.2 50.3,16.2 C50.3,15.3 50.4,14.6 50.4,14.2 L50.4,12.4 C50.4,11.3 50.1,10.8 49.9,10.2 C49.8,9.8 46.9,4.8 46.3,3.7 C45.8,2.9 45.3,2.5 44.9,2.2 C44.6,2.1 44,2 43.7,2 L43.7,1.5 L48.1,1.5 C48.1,1.5 48.2,1.8 48.8,3.1 C49,3.7 51.9,9.1 52.3,9.6 C52.3,9.6 55.2,4 56.6,1.5 L59.7,1.5 L59.7,2 C58.7,2 58.2,2.4 57.5,3.2 C56.8,4 53.9,9.4 53.5,10.3" id="path53655"></path>
                        <path d="M25.8,14.2 C25.8,14.2 25.3,16.6 25.2,17.2 C25.1,17.7 25,17.7 25,17.7 L13.9,17.7 L13.9,17.2 C14.3,17.2 14.9,17.2 15.1,17.1 C15.5,17 15.7,16.7 15.7,16.1 C15.8,15.3 15.8,13.6 15.8,11.7 L15.8,7.6 C15.8,4.5 15.8,4 15.8,3.4 C15.8,2.6 15.7,2.4 14.9,2.2 C14.8,2.2 14.2,2.2 13.9,2.2 L13.9,1.7 L18.4,1.7 L18.4,3.5 C18.4,3.5 18.4,4.6 18.4,7.7 L18.4,11.8 C18.4,14.7 18.4,15.9 18.8,16.3 C19.2,16.5 20,16.8 21.7,16.8 C23.2,16.8 23.7,16.7 24.2,16.2 C24.6,15.8 24.8,15.3 25.1,14.3 L25.8,14.3 L25.8,14.2 Z" id="path53659"></path>
                        <path d="M12.7,14.2 C12.7,14.2 12.2,16.6 12.1,17.2 C12,17.7 11.8,17.7 11.8,17.7 L0.7,17.7 L0.7,17.2 C1,17.2 1.7,17.2 1.9,17.1 C2.3,17 2.5,16.7 2.5,16.1 C2.6,15.3 2.6,13.6 2.6,11.7 L2.6,7.6 C2.6,4.5 2.6,4 2.6,3.4 C2.6,2.6 2.5,2.4 1.7,2.2 C1.6,2.2 1,2.2 0.7,2.2 L0.7,1.7 L5.2,1.7 L5.2,3.5 C5.2,3.5 5.2,4.6 5.2,7.7 L5.2,11.8 C5.2,14.7 5.2,15.9 5.6,16.3 C6,16.5 6.8,16.8 8.5,16.8 C10,16.8 10.5,16.7 11,16.2 C11.4,15.8 11.6,15.3 11.9,14.3 L12.7,14.3 L12.7,14.2 Z" id="path53663"></path>
                        <path d="M43.6,9.2 C43.6,14.1 40.5,18 35.1,18 C29.2,18 27,13.5 27,9.6 C27,5.6 29.5,1.2 35.4,1.2 C40.6,1.2 43.6,4.5 43.6,9.2 M40.6,10.1 C40.6,5.3 38.1,2.2 34.7,2.2 C32.2,2.2 29.8,4.1 29.8,9 C29.8,13.1 31.9,17 35.7,17 C38.8,17 40.6,14.6 40.6,10.1" id="path53667"></path>
                        <path d="M77.1,9.3 C77.1,12.2 76,14.3 74.9,15.5 C73.9,16.5 72,17.7 68.1,17.7 L60,17.7 L60,17.2 C61.4,17.2 62,17.2 62.1,16.1 C62.2,15.2 62.2,12.9 62.2,11.7 L62.2,7.6 C62.2,4.5 62.2,4 62.2,3.4 C62.2,2.6 61.9,2.4 61.3,2.2 C61.2,2.2 60.6,2.2 60.2,2.2 L60.2,1.7 L66.8,1.7 C69.4,1.7 72.9,1.7 75.2,4.1 C76.1,5 77.1,6.8 77.1,9.3 M74.4,10 C74.4,4.8 71,2.5 66.4,2.5 C66,2.5 65.3,2.6 65.2,2.6 C65,2.7 65,2.9 65,3.1 C65,3.9 65,5.6 65,7.3 L65,13.3 C65,15.5 65.1,15.9 65.4,16.3 C65.8,16.7 66.4,16.9 68,16.9 C72.3,17 74.4,14.6 74.4,10" id="path53671"></path>
                    </g>
                </g>
            </g>
        </g>
    </g>
</svg>